<svg xmlns="http://www.w3.org/2000/svg" viewBox="0 0 256 256" id="main-wfh-large" aria-hidden="true" role="none" data-supported-dps="256x256" width="256" height="256">
  <path d="M249.59 88c-.44-1.34-.87-2.68-1.35-4H216V40h-44V7.76c-1.32-.48-2.66-.91-4-1.35V40h-40V0A128 128 0 000 128h128V88h40v40h4V88h40v40h4V88zM168 84h-40V44h40z" fill="#dbe7e9"/>
  <path d="M256 202l-176.46.31c-30.37.05-55.05 24-55.35 53.69h179.45C256 256 256 202 256 202z" fill="#bfd3d6"/>
  <path fill="#ceb4a8" d="M118 206H10v-86h108z"/>
  <path fill="#f5e0d7" d="M10 178h108v2H10zM10 148h108v2H10zM118 120H10.12a.12.12 0 01-.12-.12v-7.75a.12.12 0 01.12-.12H118V120zM118 214H10.12a.12.12 0 01-.12-.12v-7.75a.12.12 0 01.12-.12H118V214z"/>
  <path d="M16.85 98h46.3a2.85 2.85 0 012.85 2.85V112H14v-11.15A2.85 2.85 0 0116.85 98z" fill="#aeb48a"/>
  <path d="M19.23 100H66v10H19.23a1.23 1.23 0 01-1.23-1.23v-7.54a1.23 1.23 0 011.23-1.23z" fill="#fdfaf5"/>
  <path fill="#e9e5df" d="M66 104H18v-2h48zM66 108H18v-2h48z"/>
  <path d="M16.85 84h46.3A2.85 2.85 0 0166 86.85V98H14V86.85A2.85 2.85 0 0116.85 84z" fill="#388c86"/>
  <path d="M19.23 86H66v10H19.23A1.23 1.23 0 0118 94.77v-7.54A1.23 1.23 0 0119.23 86z" fill="#fdfaf5"/>
  <path fill="#e9e5df" d="M66 90H18v-2h48zM66 94H18v-2h48z"/>
  <path d="M169.85 197.89l-10.28 45a4.06 4.06 0 01-3.95 3.12 4.06 4.06 0 01-4-4.73l8.24-43.38zM213.85 198l7.26 44.88a4.06 4.06 0 003.95 3.12 4.05 4.05 0 004-4.73L221.85 188z" fill="#958b7b"/>
  <path fill="#d4a05d" d="M132.24 180h42v24h-42z"/>
  <path d="M171.15 180h48.18a10.91 10.91 0 0110.91 10.91V204h-56.91a13.09 13.09 0 01-13.09-13.09A10.91 10.91 0 01171.15 180z" fill="#efbc7b"/>
  <path d="M208.24 180h22l19-70a16.1 16.1 0 00.7-5.11c-.37-7.94-5-14.65-12-16.9h-2.15z" fill="#f1bc7c"/>
  <path d="M178.39 100.22L152.24 180h59.45L238 88h-43.84c-7.41 0-13.47 5.18-15.77 12.22z" fill="#f1d09f"/>
  <path fill="#ffc4d9" d="M187.85 90l-14 12-26 30-26 10 28 8 21.98-32.58L187.85 90z"/>
  <path d="M214.64 138.39L207 152.13h-43L147.85 156l28-66 14-6s12.57-3.72 14-4c5.25-1 16.58 2 22 12 3.92 7.21-1.98 21.51-11.21 46.39z" fill="#ffadca"/>
  <path d="M194.93 95.44a3.07 3.07 0 01-4.84-2.5c0-6.85-.92-14-6.44-13.58-7 .58-6.73-2.17-8.42-7.18-1.07-3.19-3.4-1.83-4.12-4.22-.58-2 1.28-3.9.76-7.64-.06-.45-3.56-16.44 11.8-21.76s28.36 9.46 24 23c-.54 2-1.21 3.95-1.12 5.7.4 7.92 2.07 9.8 5.83 13.91z" fill="#955646"/>
  <path d="M220.55 46.12c-5.61.62-5.41-2-5.5-1.87 2.56-3.94 9.19-.32 9.67.77.93 2 4.65 1.69 4.6-.78 0-3.35-2.34-6.15-5.91-5.66 1.23-5.9-4.6-10-9.36-6.27-1.47 1-2.56 3.19-5.31 2.13 1.93.74 4-3.75 2.14-5.21a5.23 5.23 0 00-7.79 1.17c-1.08 1.58-.71 3.58-1.6 5.14a6.81 6.81 0 01-3 3.26s-.07 0-.09-.06c-8.37-7.5-14.81-2.51-16.68-.93a18.78 18.78 0 01-3.92 2.49c-3.07 1.33-8.82.89-9.62 5-.55 3.23-.75 5.06 3.59 6.79 1.13.44 2.62-.46 3.59.16s1.05 2 2.17 2.41a15.89 15.89 0 003.1.29c1.93.28.68 2.52 3.12 3.75a13.21 13.21 0 003.29 1c5.21-5.31 11.81 3.19 6.07 7 2.91 2.23 5.48.07 7.29 3 1.61 2.6 4.63 3.86 6.5 2.72 1.44-.88-.18-5.24 2.69-9.26a8.82 8.82 0 001.41-4.72c2.3 5.15 6.26 10.66 7.95 9.37 2.57-1.87 3.37-6.06.11-7.71 2.3-2.42.33-5.33-3.53-6.85-5.32-7.87 3.95 1.1 5.86-.69-2.37 2.22 2.05 6.87 5.33 4.94 5.44-2.9.28-12.08-6.17-11.38z" fill="#09223b"/>
  <path d="M127 231.77c-3 1.61-10.4 3.42-13.67 4.44-1.24.39-2.64 1.21-2.61 2.51.1 3.21 4.85 2.77 4.85 2.77H142c4.35 0 8-3.53 6.1-8.36-5.07-12.89-3-22.57-3-22.57H131s5 16.44-4 21.21z" fill="#955646"/>
  <path d="M128.49 237.14c-6.29 1-7.88-1.25-8.46-3.14-2.92 1-4.12 1.37-8 2.38-2.44.62-3.29 1.93-3.25 3.4.09 3.63 6.22 4.22 6.22 4.22h29c3.66.13 7.49-2.69 6.21-6.79a32.84 32.84 0 00-3.09-7.4s-4.36 5.13-18.63 7.33z" fill="#351a12"/>
  <path d="M74.24 234l-2.35 7.28 30.33-.28a66.38 66.38 0 003.21-8.66C107.1 225.08 120 214 120 214l-16-8s-4.77 15-14.83 22.83C83.77 233 74.24 234 74.24 234z" fill="#955646"/>
  <path d="M82.74 238.94c-6.49.43-7.42-2.7-8.5-4.94-7.17 1.88-12 2.21-12.94 6.5-.81 3.79 5.42 5.2 5.42 5.2l29.2.2s7.42.38 9.51-2.28c2.5-3.18 1.25-8.93.18-11.68-5.55 3.95-14.37 6.44-22.87 7z" fill="#351a12"/>
  <path d="M142.49 139.83c-5.93-.94-26-4.91-28.42 9.34-1.67 9.86.17 22.83.17 22.83l7.39 46h28.61v-48l28.19-2.89s11.42-8.83 11.42-21.11c-.16.27-21.2-2-47.36-6.17z" fill="#541431"/>
  <path d="M208.24 150h-59.51s-15.07.44-22.49 12c-20.7 32.28-29.74 44.61-29.74 44.61L120.24 222l30.43-42h25.92a29 29 0 0026.95-18.24z" fill="#632340"/>
  <path d="M170.52 84c-.54.41-1.41.27-1.86.79-.26.29-.29.74-.52 1.06a3.44 3.44 0 01-1.08.78 2.72 2.72 0 00-1.16 2.73c.31 1.6.22 3.15.53 5.42a20.65 20.65 0 002 6.33l5.49 10.89 8-6s-4.25-7.71-4-10c.24-2.13.26-2.82 1.42-4.49l2.1-3.06c.44-.53.37-2.63.48-3.26-.09-1.32-2-.4-2 .5l-.35 1.31-1.1 1.21c-1.06-2.22.52-5-.76-7.26a1.83 1.83 0 00-2.39-.78c-.51.32-.8 1-1.39 1.16-.92 0-2-.2-2.52.8-.34.62-.36 1.42-.89 1.87z" fill="#955646"/>
  <path d="M206.24 92c-5.88 10.26-10.37 18.25-13.4 23.68L182.24 102l-10 8c4.52 14.91 12.73 29.33 20.57 31.33 11.43.67 19.5-12.05 31-35.33 8.63-17.31-7.18-32.12-17.57-14z" fill="#ffc4d9"/>
  <path d="M88.24 138.77l-6-30.38a2 2 0 012-2.39h45.36a2 2 0 012 1.61l6.71 34.39H92.16a4 4 0 01-3.92-3.23z" fill="#415364"/>
  <path d="M109.88 138h40a2 2 0 012 2 2 2 0 01-2 2h-40z" fill="#415364"/>
  <circle cx="108.11" cy="123.43" r="4" fill="#7e999c"/>
  <path d="M32.19 72.08A58.82 58.82 0 0027 64c-5.22-7.09-10.25-14.34-9-14.66 2.22-.57 7.25 7.93 9.43 8.67-.85-2.75-7.78-17.25-6.87-18 .53-.41 7 7.23 10.75 16 2.63 6.12 2.89 16.24 2.89 16.24z" fill="#889b5f"/>
  <path d="M38.89 31.56c-2.06-5.71-1.27 12.51-4.53 18.44 0 0-4.49-25.34-5.75-21.61-2.51 7.41 1.36 25 3.67 34.07-2.42-4.39-5.06-10.13-7.72-10.46-2.18-.27 2.38 10.83 7.35 21.84 2.54 5.64 5.88-6.08 5.88-6.08s6.21-22.11 1.1-36.2z" fill="#9ab06b"/>
  <path d="M35.79 65.88s3.9-13.27 6-18c3.8-8.56 9.12-10.41 10.26-9.77 1 .56-1.44 1.54-4.26 5.77-2.3 3.45-3.58 6.36-3.74 10.23 2.94-4.4 5.2-5 7.56-5.63a.59.59 0 01.51 1c-2.26 2-10.07 16.61-10.07 16.61z" fill="#889b5f"/>
  <path d="M36.39 66.61c2.27-7.79 4.8-15.45 5.79-14.39C44 54.13 41.24 67.61 42 70c1.6-1.89-7.21 2.06-5.61-3.39z" fill="#9ab06b"/>
  <path d="M24.32 68.53l2 15.47h17.37l2-15.47A2.24 2.24 0 0043.45 66h-16.9a2.25 2.25 0 00-2.23 2.53z" fill="#e0a191"/>
  <path fill="#ceb4a8" d="M70 6h48v56H70z"/>
  <path fill="#fff" d="M72 8h44v52H72z"/>
  <path fill="#bfd3d6" d="M76 14h36v20H76z"/>
  <path fill="#7bd4d2" d="M76 30h36v12H76z"/>
  <path fill="#abeddd" d="M76 38h36v16H76z"/>
  <path d="M99.64 37.71l-3.79 6.63A2.45 2.45 0 0098 48h7.58a2.44 2.44 0 002.12-3.66l-3.79-6.63a2.44 2.44 0 00-4.27 0z" fill="#d7fff4"/>
  <path d="M92.57 41.57l-2.37 4.15A1.53 1.53 0 0091.53 48h4.74a1.52 1.52 0 001.32-2.28l-2.37-4.15a1.52 1.52 0 00-2.65 0zM85.64 23.71l-3.79 6.63A2.45 2.45 0 0084 34h7.58a2.44 2.44 0 002.12-3.66l-3.79-6.63a2.44 2.44 0 00-4.27 0zM98.66 19.36l-2.45 4.28A1.58 1.58 0 0097.58 26h4.89a1.58 1.58 0 001.37-2.36l-2.44-4.28a1.58 1.58 0 00-2.74 0z" fill="#d7fff4"/>
  <rect x="178.24" y="142" width="56" height="8" rx="4" fill="#958b7b"/>
</svg>
